<?xml version="1.0" standalone="no"?><!DOCTYPE svg PUBLIC "-//W3C//DTD SVG 1.1//EN" "http://www.w3.org/Graphics/SVG/1.1/DTD/svg11.dtd"><svg t="1759915533930" class="icon" viewBox="0 0 1024 1024" version="1.1" xmlns="http://www.w3.org/2000/svg" p-id="1672" xmlns:xlink="http://www.w3.org/1999/xlink" width="180" height="180"><path d="M512 102.4a40.96 40.96 0 0 1 40.96 40.96v552.96a40.96 40.96 0 1 1-81.92 0V143.36a40.96 40.96 0 0 1 40.96-40.96zM757.76 880.64a40.96 40.96 0 0 1-40.96 40.96H307.2a40.96 40.96 0 1 1 0-81.92h409.6a40.96 40.96 0 0 1 40.96 40.96z" fill="#000000" p-id="1673" data-spm-anchor-id="a313x.collections_detail.0.i4.21d03a812G9ETB" class="selected"></path><path d="M513.06496 714.30144l203.22304-203.22304a40.96 40.96 0 1 1 57.91744 57.93792L542.5152 800.70656c-0.8192 0.8192-1.6384 1.57696-2.49856 2.29376a40.96 40.96 0 0 1-55.95136-1.8432L252.35456 569.46688a40.96 40.96 0 0 1 57.93792-57.93792l202.752 202.77248z" fill="#000000" p-id="1674"></path></svg>