<?xml version="1.0" standalone="no"?><!DOCTYPE svg PUBLIC "-//W3C//DTD SVG 1.1//EN" "http://www.w3.org/Graphics/SVG/1.1/DTD/svg11.dtd"><svg t="1692090211988" class="icon" viewBox="0 0 1024 1024" version="1.1" xmlns="http://www.w3.org/2000/svg" p-id="24259" xmlns:xlink="http://www.w3.org/1999/xlink" width="48" height="48"><path d="M524.994207 31.073103c-9.992828-5.014069-19.985655-5.014069-24.964414 0-142.30069 87.393103-219.736276 254.658207-192.264827 421.958621 0 4.978759 0 9.992828-2.471725 17.478621-32.485517 52.435862-47.457103 112.357517-47.457103 172.279172 0 29.943172 2.471724 57.414621 9.992828 84.886069 2.471724 12.499862 17.478621 22.457379 32.450206 17.478621a22.49269 22.49269 0 0 0 14.971587-14.971586 305.858207 305.858207 0 0 1 64.935724-94.878897c2.471724 2.471724 4.978759 4.978759 4.978758 9.992828 42.443034 2.471724 84.886069 4.943448 124.85738 4.943448 42.443034 2.542345 84.886069 0 127.329103-2.471724 2.471724-2.471724 4.978759-4.978759 4.978759-9.992828a305.858207 305.858207 0 0 1 64.935724 94.878897c7.485793 12.499862 19.950345 19.985655 32.450207 12.499862a22.49269 22.49269 0 0 0 14.971586-14.971586c7.485793-27.471448 9.992828-54.942897 9.992828-84.886069 0-59.956966-14.971586-119.878621-47.421794-172.314483-5.014069-4.943448-5.014069-9.957517-2.507034-17.478621 29.943172-169.772138-47.457103-337.037241-189.757793-424.430345z m72.386207 312.108138c0 44.914759-39.90069 84.886069-84.886069 84.886069-44.914759 0-84.886069-39.97131-84.886069-84.886069 0-44.950069 39.97131-84.921379 84.886069-84.921379 44.950069 0 84.886069 39.97131 84.886069 84.921379z" fill="#4E7BFE" p-id="24260"></path><path d="M432.622345 772.590345c0 34.957241 37.428966 227.222069 79.872 229.729103s79.90731-189.757793 79.90731-229.693793c-7.485793-42.443034-49.928828-74.928552-94.878896-64.935724-34.957241 5.014069-59.921655 29.978483-64.900414 64.935724z" fill="#F8991C" p-id="24261"></path></svg>